<svg xmlns="http://www.w3.org/2000/svg" xmlns:v="https://svgstorm.com"
viewBox = "0 0 357 352"
width="357"
height="352">
<g fill="None" fill-opacity="0.0" stroke="#ff9d9d" stroke-opacity="1.00" stroke-width="0.3"><path d="
M 181.00 132.00 
C 177.71 119.28 176.54 102.87 172.32 90.68 C 168.11 78.48 164.11 67.49 156.75 57.25 C 149.39 47.01 142.07 39.50 131.70 32.30 C 121.32 25.10 110.11 19.41 97.00 18.00 C 83.89 16.59 69.48 21.23 59.23 29.23 C 48.98 37.23 43.47 45.63 36.92 56.92 C 30.38 68.22 27.86 82.34 26.78 95.78 C 25.70 109.21 28.38 126.06 32.68 138.32 C 36.97 150.58 41.19 161.53 48.23 171.77 C 55.27 182.01 61.47 190.33 69.75 199.25 C 78.04 208.17 85.66 216.64 93.25 225.75 C 100.84 234.86 108.56 243.00 115.75 252.25 C 122.94 261.49 132.18 269.47 139.08 278.92 C 145.99 288.37 154.98 295.38 162.23 304.77 C 169.48 314.16 178.63 320.33 185.75 330.25 C 192.87 340.16 206.69 348.93 214.75 336.75 C 222.82 324.58 221.74 314.35 231.75 304.75 C 241.75 295.14 245.48 286.46 253.75 276.75 C 262.01 267.04 266.65 257.81 273.75 247.75 C 280.85 237.68 286.41 228.29 292.70 217.70 C 298.98 207.10 304.51 196.37 310.23 185.23 C 315.95 174.09 321.30 163.98 326.08 152.08 C 330.85 140.17 335.61 127.03 338.00 114.00 C 340.39 100.97 340.93 82.45 336.98 70.02 C 333.02 57.60 327.12 49.10 316.75 41.25 C 306.37 33.41 290.13 29.29 277.22 31.22 C 264.31 33.15 253.57 39.18 243.25 46.25 C 232.92 53.32 225.86 61.58 215.75 68.75 C 205.64 75.92 199.52 85.10 193.92 95.92 C 188.32 106.75 185.66 121.05 181.00 132.00
M 168.00 133.00 
C 147.16 91.75 117.46 36.79 64.00 38.00
C 78.92 24.97 104.84 25.12 120.69 35.31 C 136.55 45.49 148.26 56.62 156.30 73.70 C 164.35 90.77 172.10 114.48 168.00 133.00
M 292.00 41.00 
C 317.98 42.41 331.89 70.09 331.00 94.00 C 330.11 117.91 320.81 143.70 310.00 165.00
C 317.55 126.48 332.07 60.56 283.00 42.00
C 279.99 38.20 290.88 40.82 292.00 41.00
M 107.00 62.00 
C 110.94 65.37 114.67 69.11 118.00 73.00
C 128.50 85.29 139.55 98.18 146.30 112.70 C 153.06 127.21 165.89 143.62 167.00 160.00
C 167.52 162.90 167.46 165.18 167.00 168.00
C 166.63 174.81 160.21 190.56 170.70 188.69 C 181.18 186.83 187.56 181.93 186.00 171.00 C 184.44 160.07 187.93 151.08 189.93 141.93 C 191.93 132.78 195.36 126.09 199.31 118.31 C 203.25 110.52 207.54 104.20 212.25 97.25 C 216.97 90.31 221.43 84.99 226.25 78.25 C 231.07 71.52 235.51 66.46 242.23 61.23 C 248.95 56.00 257.49 53.34 266.01 52.01 C 274.53 50.67 285.39 50.44 292.23 56.77 C 299.07 63.10 301.74 69.54 304.93 78.07 C 308.11 86.61 308.64 97.40 309.00 107.00 C 309.36 116.60 307.75 128.03 306.02 137.02 C 304.30 146.02 301.85 154.67 299.02 163.02 C 296.20 171.38 292.64 178.40 289.23 186.23 C 285.82 194.06 282.00 201.73 278.08 209.08 C 274.15 216.42 270.47 223.35 266.23 230.23 C 261.99 237.11 258.60 244.42 253.75 250.75 C 248.89 257.07 245.65 264.70 240.70 270.70 C 235.74 276.69 232.21 284.70 227.08 290.08 C 221.95 295.46 218.86 305.96 212.75 309.75 C 206.64 313.54 199.49 301.38 193.75 298.25 C 188.01 295.12 180.93 288.25 175.25 283.75 C 169.58 279.24 163.46 273.28 157.75 268.25 C 152.04 263.22 147.02 257.07 141.25 251.75 C 135.48 246.43 129.83 240.20 124.75 234.25 C 119.67 228.30 114.43 222.61 109.75 216.25 C 105.07 209.89 100.57 203.57 96.08 196.92 C 91.59 190.27 87.59 183.52 83.69 176.31 C 79.80 169.09 75.71 162.51 72.08 154.92 C 68.44 147.34 65.02 139.35 61.69 131.31 C 58.37 123.26 55.91 114.83 54.02 105.98 C 52.13 97.13 50.59 85.51 51.00 76.00 C 51.41 66.49 53.55 59.03 59.75 51.75 C 65.95 44.48 77.80 46.63 85.67 49.33 C 93.54 52.03 100.61 56.54 107.00 62.00
M 36.00 107.00 
C 35.76 104.49 35.76 101.45 36.00 99.00
C 36.00 90.50 37.82 82.64 41.00 75.00
C 42.93 127.10 69.27 173.32 97.00 216.00
C 65.93 186.45 38.57 150.27 36.00 107.00
M 199.00 330.00 
C 180.89 313.40 164.53 295.08 150.00 276.00
C 160.14 282.99 173.07 291.41 182.23 299.77 C 191.39 308.13 211.43 317.37 199.00 330.00 Z"/>
</g>
<g fill="#ff9d9d" fill-opacity="1.00" stroke="None">
<path d="
M 181.00 132.00 
C 177.71 119.28 176.54 102.87 172.32 90.68 C 168.11 78.48 164.11 67.49 156.75 57.25 C 149.39 47.01 142.07 39.50 131.70 32.30 C 121.32 25.10 110.11 19.41 97.00 18.00 C 83.89 16.59 69.48 21.23 59.23 29.23 C 48.98 37.23 43.47 45.63 36.92 56.92 C 30.38 68.22 27.86 82.34 26.78 95.78 C 25.70 109.21 28.38 126.06 32.68 138.32 C 36.97 150.58 41.19 161.53 48.23 171.77 C 55.27 182.01 61.47 190.33 69.75 199.25 C 78.04 208.17 85.66 216.64 93.25 225.75 C 100.84 234.86 108.56 243.00 115.75 252.25 C 122.94 261.49 132.18 269.47 139.08 278.92 C 145.99 288.37 154.98 295.38 162.23 304.77 C 169.48 314.16 178.63 320.33 185.75 330.25 C 192.87 340.16 206.69 348.93 214.75 336.75 C 222.82 324.58 221.74 314.35 231.75 304.75 C 241.75 295.14 245.48 286.46 253.75 276.75 C 262.01 267.04 266.65 257.81 273.75 247.75 C 280.85 237.68 286.41 228.29 292.70 217.70 C 298.98 207.10 304.51 196.37 310.23 185.23 C 315.95 174.09 321.30 163.98 326.08 152.08 C 330.85 140.17 335.61 127.03 338.00 114.00 C 340.39 100.97 340.93 82.45 336.98 70.02 C 333.02 57.60 327.12 49.10 316.75 41.25 C 306.37 33.41 290.13 29.29 277.22 31.22 C 264.31 33.15 253.57 39.18 243.25 46.25 C 232.92 53.32 225.86 61.58 215.75 68.75 C 205.64 75.92 199.52 85.10 193.92 95.92 C 188.32 106.75 185.66 121.05 181.00 132.00
M 168.00 133.00 
C 147.16 91.75 117.46 36.79 64.00 38.00
C 78.92 24.97 104.84 25.12 120.69 35.31 C 136.55 45.49 148.26 56.62 156.30 73.70 C 164.35 90.77 172.10 114.48 168.00 133.00
M 292.00 41.00 
C 317.98 42.41 331.89 70.09 331.00 94.00 C 330.11 117.91 320.81 143.70 310.00 165.00
C 317.55 126.48 332.07 60.56 283.00 42.00
C 279.99 38.20 290.88 40.82 292.00 41.00
M 107.00 62.00 
C 110.94 65.37 114.67 69.11 118.00 73.00
C 128.50 85.29 139.55 98.18 146.30 112.70 C 153.06 127.21 165.89 143.62 167.00 160.00
C 167.52 162.90 167.46 165.18 167.00 168.00
C 166.63 174.81 160.21 190.56 170.70 188.69 C 181.18 186.83 187.56 181.93 186.00 171.00 C 184.44 160.07 187.93 151.08 189.93 141.93 C 191.93 132.78 195.36 126.09 199.31 118.31 C 203.25 110.52 207.54 104.20 212.25 97.25 C 216.97 90.31 221.43 84.99 226.25 78.25 C 231.07 71.52 235.51 66.46 242.23 61.23 C 248.95 56.00 257.49 53.34 266.01 52.01 C 274.53 50.67 285.39 50.44 292.23 56.77 C 299.07 63.10 301.74 69.54 304.93 78.07 C 308.11 86.61 308.64 97.40 309.00 107.00 C 309.36 116.60 307.75 128.03 306.02 137.02 C 304.30 146.02 301.85 154.67 299.02 163.02 C 296.20 171.38 292.64 178.40 289.23 186.23 C 285.82 194.06 282.00 201.73 278.08 209.08 C 274.15 216.42 270.47 223.35 266.23 230.23 C 261.99 237.11 258.60 244.42 253.75 250.75 C 248.89 257.07 245.65 264.70 240.70 270.70 C 235.74 276.69 232.21 284.70 227.08 290.08 C 221.95 295.46 218.86 305.96 212.75 309.75 C 206.64 313.54 199.49 301.38 193.75 298.25 C 188.01 295.12 180.93 288.25 175.25 283.75 C 169.58 279.24 163.46 273.28 157.75 268.25 C 152.04 263.22 147.02 257.07 141.25 251.75 C 135.48 246.43 129.83 240.20 124.75 234.25 C 119.67 228.30 114.43 222.61 109.75 216.25 C 105.07 209.89 100.57 203.57 96.08 196.92 C 91.59 190.27 87.59 183.52 83.69 176.31 C 79.80 169.09 75.71 162.51 72.08 154.92 C 68.44 147.34 65.02 139.35 61.69 131.31 C 58.37 123.26 55.91 114.83 54.02 105.98 C 52.13 97.13 50.59 85.51 51.00 76.00 C 51.41 66.49 53.55 59.03 59.75 51.75 C 65.95 44.48 77.80 46.63 85.67 49.33 C 93.54 52.03 100.61 56.54 107.00 62.00
M 36.00 107.00 
C 35.76 104.49 35.76 101.45 36.00 99.00
C 36.00 90.50 37.82 82.64 41.00 75.00
C 42.93 127.10 69.27 173.32 97.00 216.00
C 65.93 186.45 38.57 150.27 36.00 107.00
M 199.00 330.00 
C 180.89 313.40 164.53 295.08 150.00 276.00
C 160.14 282.99 173.07 291.41 182.23 299.77 C 191.39 308.13 211.43 317.37 199.00 330.00 Z"/>
</g>
</svg>
